<svg width="21" height="21" viewBox="0 0 21 21" fill="none" xmlns="http://www.w3.org/2000/svg">
<path d="M9.30859 8.69128L12.3555 10.41L9.30859 12.1483V8.69128ZM17.6484 4.80457V16.0155C17.6484 16.4452 17.4987 16.8098 17.1992 17.1093C16.8997 17.4087 16.5352 17.5585 16.1055 17.5585H4.89453C4.46484 17.5585 4.10026 17.4087 3.80078 17.1093C3.5013 16.8098 3.35156 16.4452 3.35156 16.0155V4.80457C3.35156 4.37488 3.5013 4.01029 3.80078 3.71082C4.10026 3.41134 4.46484 3.2616 4.89453 3.2616H16.1055C16.5352 3.2616 16.8997 3.41134 17.1992 3.71082C17.4987 4.01029 17.6484 4.37488 17.6484 4.80457ZM16.3008 10.41C16.3008 10.41 16.291 10.0585 16.2715 9.35535C16.252 8.65222 16.1836 8.06628 16.0664 7.59753C16.0013 7.35014 15.8743 7.13529 15.6855 6.953C15.4967 6.77071 15.2786 6.64701 15.0312 6.58191C14.8099 6.5168 14.4453 6.46472 13.9375 6.42566C13.4427 6.39962 12.9414 6.37683 12.4336 6.3573C11.9258 6.33777 11.4766 6.328 11.0859 6.328C10.6953 6.328 10.5 6.328 10.5 6.328C10.5 6.328 10.3047 6.328 9.91406 6.328C9.52344 6.328 9.07422 6.33777 8.56641 6.3573C8.05859 6.37683 7.55729 6.39962 7.0625 6.42566C6.55469 6.46472 6.1901 6.5168 5.96875 6.58191C5.72135 6.64701 5.50326 6.77071 5.31445 6.953C5.12565 7.13529 4.9987 7.35014 4.93359 7.59753C4.81641 8.05326 4.74805 8.63595 4.72852 9.34558C4.70898 10.0552 4.69922 10.41 4.69922 10.41C4.69922 10.41 4.70898 10.7649 4.72852 11.4745C4.74805 12.1841 4.81641 12.7668 4.93359 13.2225C4.9987 13.483 5.12565 13.701 5.31445 13.8768C5.50326 14.0526 5.72135 14.1796 5.96875 14.2577C6.1901 14.3098 6.55469 14.3553 7.0625 14.3944C7.55729 14.4205 8.05859 14.4432 8.56641 14.4628C9.07422 14.4823 9.52344 14.4921 9.91406 14.4921C10.3047 14.4921 10.5 14.4921 10.5 14.4921C10.5 14.4921 10.6953 14.4921 11.0859 14.4921C11.4766 14.4921 11.9258 14.4823 12.4336 14.4628C12.9414 14.4432 13.4427 14.4205 13.9375 14.3944C14.4453 14.3553 14.8099 14.3033 15.0312 14.2382C15.2786 14.1731 15.4967 14.0526 15.6855 13.8768C15.8743 13.701 16.0013 13.483 16.0664 13.2225C16.1836 12.7668 16.252 12.1841 16.2715 11.4745C16.291 10.7649 16.3008 10.41 16.3008 10.41Z" fill="white"/>
</svg>
