<svg width="21" height="21" viewBox="0 0 21 21" fill="none" xmlns="http://www.w3.org/2000/svg">
<path d="M16.8477 3.2616C16.9648 3.2616 17.069 3.28113 17.1602 3.32019C17.2513 3.35925 17.3359 3.41785 17.4141 3.49597C17.4922 3.5741 17.5508 3.65873 17.5898 3.74988C17.6289 3.84102 17.6484 3.94519 17.6484 4.06238V16.7577C17.6484 16.8749 17.6289 16.979 17.5898 17.0702C17.5508 17.1613 17.4922 17.246 17.4141 17.3241C17.3359 17.4022 17.2513 17.4608 17.1602 17.4999C17.069 17.5389 16.9648 17.5585 16.8477 17.5585H13.2148V12.0116H15.0703L15.3438 9.86316H13.2148V8.47644C13.2148 8.30717 13.2344 8.15743 13.2734 8.02722C13.3125 7.89701 13.3646 7.78634 13.4297 7.69519C13.5078 7.61707 13.6185 7.55522 13.7617 7.50964C13.9049 7.46407 14.0807 7.44128 14.2891 7.44128H15.4219V5.50769C15.2266 5.48165 14.9922 5.46212 14.7188 5.4491C14.4453 5.43608 14.1263 5.42957 13.7617 5.42957C13.3451 5.42957 12.9674 5.49141 12.6289 5.61511C12.2904 5.73881 11.9974 5.92436 11.75 6.17175C11.4896 6.41915 11.2975 6.71863 11.1738 7.07019C11.0501 7.42175 10.9883 7.81889 10.9883 8.2616V9.86316H9.13281V12.0116H10.9883V17.5585H4.15234C4.03516 17.5585 3.93099 17.5389 3.83984 17.4999C3.7487 17.4608 3.66406 17.4022 3.58594 17.3241C3.50781 17.246 3.44922 17.1613 3.41016 17.0702C3.37109 16.979 3.35156 16.8749 3.35156 16.7577V4.06238C3.35156 3.94519 3.37109 3.84102 3.41016 3.74988C3.44922 3.65873 3.50781 3.5741 3.58594 3.49597C3.66406 3.41785 3.7487 3.35925 3.83984 3.32019C3.93099 3.28113 4.03516 3.2616 4.15234 3.2616H16.8477Z" fill="white"/>
</svg>
