<svg width="21" height="21" viewBox="0 0 21 21" fill="none" xmlns="http://www.w3.org/2000/svg">
<path d="M10.5 8.02722C9.84896 8.02722 9.28906 8.2616 8.82031 8.73035C8.35156 9.1991 8.11719 9.75899 8.11719 10.41C8.11719 11.0611 8.35156 11.621 8.82031 12.0897C9.28906 12.5585 9.84896 12.7928 10.5 12.7928C11.151 12.7928 11.7109 12.5585 12.1797 12.0897C12.6484 11.621 12.8828 11.0611 12.8828 10.41C12.8828 9.75899 12.6484 9.1991 12.1797 8.73035C11.7109 8.2616 11.151 8.02722 10.5 8.02722ZM17.6484 10.41C17.6484 9.91524 17.6452 9.42371 17.6387 8.93542C17.6322 8.44714 17.6159 7.95561 17.5898 7.46082C17.5638 6.8879 17.4694 6.35079 17.3066 5.84949C17.1439 5.34819 16.8542 4.8892 16.4375 4.47253C16.0208 4.05587 15.5618 3.76615 15.0605 3.60339C14.5592 3.44063 14.0221 3.34623 13.4492 3.32019C12.9544 3.29415 12.4629 3.27787 11.9746 3.27136C11.4863 3.26485 10.9948 3.2616 10.5 3.2616C10.0052 3.2616 9.51367 3.26485 9.02539 3.27136C8.53711 3.27787 8.04557 3.29415 7.55078 3.32019C6.97786 3.34623 6.44076 3.44063 5.93945 3.60339C5.43815 3.76615 4.97917 4.05587 4.5625 4.47253C4.14583 4.8892 3.85612 5.34819 3.69336 5.84949C3.5306 6.35079 3.4362 6.8879 3.41016 7.46082C3.38411 7.95561 3.36784 8.44714 3.36133 8.93542C3.35482 9.42371 3.35156 9.91524 3.35156 10.41C3.35156 10.9048 3.35482 11.3964 3.36133 11.8846C3.36784 12.3729 3.38411 12.8645 3.41016 13.3593C3.4362 13.9322 3.5306 14.4693 3.69336 14.9706C3.85612 15.4719 4.14583 15.9309 4.5625 16.3475C4.97917 16.7642 5.43815 17.0539 5.93945 17.2167C6.44076 17.3794 6.97786 17.4738 7.55078 17.4999C8.04557 17.5259 8.53711 17.5422 9.02539 17.5487C9.51367 17.5552 10.0052 17.5585 10.5 17.5585C10.9948 17.5585 11.4863 17.5552 11.9746 17.5487C12.4629 17.5422 12.9544 17.5259 13.4492 17.4999C14.0221 17.4738 14.5592 17.3794 15.0605 17.2167C15.5618 17.0539 16.0208 16.7642 16.4375 16.3475C16.8542 15.9309 17.1439 15.4719 17.3066 14.9706C17.4694 14.4693 17.5638 13.9322 17.5898 13.3593C17.6159 12.8645 17.6322 12.3729 17.6387 11.8846C17.6452 11.3964 17.6484 10.9048 17.6484 10.41ZM10.5 14.0819C9.48438 14.0819 8.61849 13.7238 7.90234 13.0077C7.1862 12.2915 6.82812 11.4257 6.82812 10.41C6.82812 9.39441 7.1862 8.52852 7.90234 7.81238C8.61849 7.09623 9.48438 6.73816 10.5 6.73816C11.5156 6.73816 12.3815 7.09623 13.0977 7.81238C13.8138 8.52852 14.1719 9.39441 14.1719 10.41C14.1719 11.4257 13.8138 12.2915 13.0977 13.0077C12.3815 13.7238 11.5156 14.0819 10.5 14.0819ZM14.3086 7.44128C14.0742 7.44128 13.8724 7.3599 13.7031 7.19714C13.5339 7.03438 13.4492 6.83582 13.4492 6.60144C13.4492 6.35404 13.5339 6.14897 13.7031 5.98621C13.8724 5.82345 14.0742 5.74207 14.3086 5.74207C14.543 5.74207 14.7448 5.82345 14.9141 5.98621C15.0833 6.14897 15.168 6.35404 15.168 6.60144C15.168 6.65352 15.1615 6.70561 15.1484 6.75769C15.1354 6.80977 15.1224 6.86186 15.1094 6.91394C15.0833 6.96602 15.054 7.01811 15.0215 7.07019C14.9889 7.12227 14.9531 7.16785 14.9141 7.20691C14.875 7.24597 14.8327 7.28178 14.7871 7.31433C14.7415 7.34688 14.6927 7.36967 14.6406 7.38269C14.5885 7.40873 14.5365 7.42501 14.4844 7.43152C14.4323 7.43803 14.3737 7.44128 14.3086 7.44128Z" fill="white"/>
</svg>
